<?xml version="1.0" encoding="UTF-8"?>
<!DOCTYPE svg PUBLIC "-//W3C//DTD SVG 1.1//EN" "http://www.w3.org/Graphics/SVG/1.1/DTD/svg11.dtd">
<svg xmlns="http://www.w3.org/2000/svg" version="1.1" width="569px" height="102px" style="shape-rendering:geometricPrecision; text-rendering:geometricPrecision; image-rendering:optimizeQuality; fill-rule:evenodd; clip-rule:evenodd" xmlns:xlink="http://www.w3.org/1999/xlink">
<g><path style="opacity:0.958" fill="#46b1c9" d="M 43.5,-0.5 C 48.1667,-0.5 52.8333,-0.5 57.5,-0.5C 90.5286,10.211 102.695,32.5443 94,66.5C 92.2011,71.798 89.2011,76.1314 85,79.5C 76.9848,71.1509 69.3182,62.4842 62,53.5C 61.3623,52.3914 60.8623,51.2247 60.5,50C 67.0116,40.6557 74.0116,31.6557 81.5,23C 75.8333,22.3333 70.1667,22.3333 64.5,23C 57.0465,32.0754 49.7132,41.2421 42.5,50.5C 52.4779,62.9789 62.6445,75.3123 73,87.5C 73.6667,88.5 73.6667,89.5 73,90.5C 49.3579,101.949 28.3579,98.2819 10,79.5C 5.11514,72.7338 1.61514,65.4005 -0.5,57.5C -0.5,51.5 -0.5,45.5 -0.5,39.5C 2.55721,25.2342 10.2239,14.0676 22.5,6C 24.3453,4.87201 26.3453,4.37201 28.5,4.5C 28.5,30.8333 28.5,57.1667 28.5,83.5C 33.5,83.5 38.5,83.5 43.5,83.5C 43.6664,75.16 43.4997,66.8267 43,58.5C 40.9062,55.9677 39.0728,53.301 37.5,50.5C 38.816,47.2045 40.6494,44.2045 43,41.5C 43.4999,27.504 43.6666,13.504 43.5,-0.5 Z"/></g>
<g><path style="opacity:0.859" fill="#fefffe" d="M 112.5,20.5 C 114.144,20.2865 115.644,20.6198 117,21.5C 117.333,31.8333 117.667,42.1667 118,52.5C 124.082,45.7466 130.748,39.7466 138,34.5C 140.319,35.4085 140.986,37.0752 140,39.5C 136.167,43.3333 132.333,47.1667 128.5,51C 132.209,56.9189 136.042,62.7522 140,68.5C 141.128,70.3453 141.628,72.3453 141.5,74.5C 139.396,74.7989 137.396,74.4656 135.5,73.5C 131.733,67.6204 127.733,61.9537 123.5,56.5C 121.833,57.8333 120.167,59.1667 118.5,60.5C 117.672,64.7956 117.172,69.1289 117,73.5C 115.333,74.8333 113.667,74.8333 112,73.5C 111.182,55.7597 111.348,38.093 112.5,20.5 Z"/></g>
<g><path style="opacity:0.885" fill="#fefffe" d="M 226.5,20.5 C 228.467,20.2606 230.301,20.5939 232,21.5C 232.499,25.8206 232.666,30.1539 232.5,34.5C 234.857,34.3367 237.19,34.5034 239.5,35C 240.833,36.6667 240.833,38.3333 239.5,40C 237.19,40.4966 234.857,40.6633 232.5,40.5C 232.667,51.505 232.5,62.505 232,73.5C 230.301,74.4061 228.467,74.7394 226.5,74.5C 226.5,63.1667 226.5,51.8333 226.5,40.5C 217.149,38.6052 208.982,40.9386 202,47.5C 201.138,49.087 200.471,50.7536 200,52.5C 199.815,59.7466 199.315,66.9133 198.5,74C 196.888,74.7203 195.388,74.5536 194,73.5C 193.178,60.5912 193.345,47.7579 194.5,35C 198.293,33.948 200.293,35.448 200.5,39.5C 203.037,37.7326 205.703,36.2326 208.5,35C 214.57,35.2328 220.57,35.0661 226.5,34.5C 226.5,29.8333 226.5,25.1667 226.5,20.5 Z"/></g>
<g><path style="opacity:0.883" fill="#fefffe" d="M 289.5,20.5 C 291.144,20.2865 292.644,20.6198 294,21.5C 294.667,38.8333 294.667,56.1667 294,73.5C 292.333,74.8333 290.667,74.8333 289,73.5C 288.182,55.7597 288.348,38.093 289.5,20.5 Z"/></g>
<g><path style="opacity:0.867" fill="#fefffe" d="M 158.5,34.5 C 172.518,32.3856 181.351,38.0523 185,51.5C 185.667,58.8333 185.667,66.1667 185,73.5C 183.301,74.4061 181.467,74.7394 179.5,74.5C 179.688,72.8967 179.188,71.5634 178,70.5C 166.505,78.1809 156.172,76.8476 147,66.5C 140.455,52.0189 144.288,41.3523 158.5,34.5 Z M 162.5,40.5 C 176.58,42.0387 181.413,49.3721 177,62.5C 169.288,71.2697 161.288,71.603 153,63.5C 147.951,52.2785 151.118,44.6119 162.5,40.5 Z"/></g>
<g><path style="opacity:0.893" fill="#fefffe" d="M 256.5,34.5 C 273.806,32.5878 282.472,40.0878 282.5,57C 271.167,57.3333 259.833,57.6667 248.5,58C 251.365,65.9358 257.032,69.6025 265.5,69C 268.807,68.3472 271.473,66.6805 273.5,64C 277,63.5 278.5,65 278,68.5C 271.121,75.5449 262.954,77.3782 253.5,74C 243.525,67.7436 240.025,58.9103 243,47.5C 246.101,41.5629 250.601,37.2296 256.5,34.5 Z M 260.5,40.5 C 269.086,40.4447 274.419,44.4447 276.5,52.5C 267.143,52.8316 257.81,52.4983 248.5,51.5C 250.678,45.6477 254.678,41.981 260.5,40.5 Z"/></g>
<g><path style="opacity:0.867" fill="#fefffe" d="M 314.5,34.5 C 328.518,32.3856 337.351,38.0523 341,51.5C 341.667,58.8333 341.667,66.1667 341,73.5C 339.301,74.4061 337.467,74.7394 335.5,74.5C 335.688,72.8967 335.188,71.5634 334,70.5C 322.505,78.1809 312.172,76.8476 303,66.5C 296.455,52.0189 300.288,41.3523 314.5,34.5 Z M 318.5,40.5 C 332.58,42.0387 337.413,49.3721 333,62.5C 325.288,71.2697 317.288,71.603 309,63.5C 303.951,52.2785 307.118,44.6119 318.5,40.5 Z"/></g>
<g><path style="opacity:0.865" fill="#fefffe" d="M 350.5,34.5 C 353.86,33.7904 355.693,35.1238 356,38.5C 360.861,34.1783 366.361,33.3449 372.5,36C 373.667,37.1667 374.833,38.3333 376,39.5C 382.614,33.9552 389.78,33.1219 397.5,37C 399.894,38.9522 401.394,41.4522 402,44.5C 402.667,54.1667 402.667,63.8333 402,73.5C 400.333,74.8333 398.667,74.8333 397,73.5C 396.667,64.5 396.333,55.5 396,46.5C 391.162,39.005 385.828,38.6717 380,45.5C 379.667,54.5 379.333,63.5 379,72.5C 377.582,74.3632 375.749,74.8632 373.5,74C 372.68,64.5774 372.18,55.0774 372,45.5C 366.351,38.7326 361.018,39.0659 356,46.5C 355.667,55.5 355.333,64.5 355,73.5C 353.612,74.5536 352.112,74.7203 350.5,74C 349.175,60.8334 349.175,47.6667 350.5,34.5 Z"/></g>
<g><path style="opacity:0.863" fill="#fefffe" d="M 440.5,34.5 C 448.422,33.0494 455.255,35.0494 461,40.5C 462.08,43.2371 461.246,44.9037 458.5,45.5C 454.638,43.1553 450.471,41.4886 446,40.5C 434.491,43.1821 430.491,50.1821 434,61.5C 440.764,69.6576 448.264,70.491 456.5,64C 460.667,62.8333 462.167,64.3333 461,68.5C 454.136,74.6213 446.302,76.1213 437.5,73C 427.526,67.2136 424.026,58.7136 427,47.5C 429.73,41.2376 434.23,36.9043 440.5,34.5 Z"/></g>
<g><path style="opacity:0.867" fill="#fefffe" d="M 479.5,34.5 C 499.71,33.2808 508.21,42.6141 505,62.5C 498.977,74.5158 489.477,78.3491 476.5,74C 466.181,67.8633 462.681,59.03 466,47.5C 469.101,41.5629 473.601,37.2296 479.5,34.5 Z M 483.5,40.5 C 497.51,41.9829 502.343,49.3162 498,62.5C 490.288,71.2697 482.288,71.603 474,63.5C 468.951,52.2785 472.118,44.6119 483.5,40.5 Z"/></g>
<g><path style="opacity:0.865" fill="#fefffe" d="M 512.5,34.5 C 515.86,33.7904 517.693,35.1238 518,38.5C 522.861,34.1783 528.361,33.3449 534.5,36C 535.667,37.1667 536.833,38.3333 538,39.5C 544.614,33.9552 551.78,33.1219 559.5,37C 561.894,38.9522 563.394,41.4522 564,44.5C 564.667,54.1667 564.667,63.8333 564,73.5C 562.333,74.8333 560.667,74.8333 559,73.5C 558.667,64.5 558.333,55.5 558,46.5C 553.162,39.005 547.828,38.6717 542,45.5C 541.667,54.5 541.333,63.5 541,72.5C 539.582,74.3632 537.749,74.8632 535.5,74C 534.68,64.5774 534.18,55.0774 534,45.5C 528.351,38.7326 523.018,39.0659 518,46.5C 517.667,55.5 517.333,64.5 517,73.5C 515.612,74.5536 514.112,74.7203 512.5,74C 511.175,60.8334 511.175,47.6667 512.5,34.5 Z"/></g>
<g><path style="opacity:0.864" fill="#f95958" d="M 410.5,49.5 C 420.024,48.7317 422.691,52.565 418.5,61C 412.761,63.464 409.094,61.6307 407.5,55.5C 407.984,53.1992 408.984,51.1992 410.5,49.5 Z"/></g>
</svg>
